<?xml version="1.0" standalone="no"?>
<!DOCTYPE svg PUBLIC "-//W3C//DTD SVG 20010904//EN"
 "http://www.w3.org/TR/2001/REC-SVG-20010904/DTD/svg10.dtd">
<svg version="1.0" xmlns="http://www.w3.org/2000/svg"
 width="516.000000pt" height="398.000000pt" viewBox="0 0 516.000000 398.000000"
 preserveAspectRatio="xMidYMid meet">

<g transform="translate(0.000000,398.000000) scale(0.100000,-0.100000)"
fill="#000000" stroke="none">
<path d="M2305 3929 c-4 -6 -5 -12 -2 -15 2 -3 7 2 10 11 7 17 1 20 -8 4z"/>
<path d="M2216 3795 c-9 -26 -7 -32 5 -12 6 10 9 21 6 23 -2 3 -7 -2 -11 -11z"/>
<path d="M1080 3585 c0 -5 5 -17 10 -25 5 -8 10 -10 10 -5 0 6 -5 17 -10 25
-5 8 -10 11 -10 5z"/>
<path d="M2090 3565 c0 -5 5 -17 10 -25 5 -8 10 -10 10 -5 0 6 -5 17 -10 25
-5 8 -10 11 -10 5z"/>
<path d="M2086 3505 c-9 -26 -7 -32 5 -12 6 10 9 21 6 23 -2 3 -7 -2 -11 -11z"/>
<path d="M3948 3338 l-3 -133 -82 -3 -83 -3 0 -39 0 -39 83 -3 82 -3 5 -326 5
-326 45 1 45 1 3 328 2 327 93 0 94 0 1 40 2 40 -95 0 -95 0 0 135 0 135 -50
0 -49 0 -3 -132z"/>
<path d="M1135 3449 c-4 -6 -5 -12 -2 -15 2 -3 7 2 10 11 7 17 1 20 -8 4z"/>
<path d="M1166 3393 c-6 -14 -5 -15 5 -6 7 7 10 15 7 18 -3 3 -9 -2 -12 -12z"/>
<path d="M26 3384 c-36 -35 -7 -104 42 -104 28 0 62 34 62 60 0 48 -71 78
-104 44z"/>
<path d="M1215 3289 c-4 -6 -5 -12 -2 -15 2 -3 7 2 10 11 7 17 1 20 -8 4z"/>
<path d="M1230 3213 c0 -4 5 -15 10 -23 8 -13 10 -13 10 2 0 9 -4 20 -10 23
-5 3 -10 3 -10 -2z"/>
<path d="M2265 3207 c-111 -37 -196 -112 -248 -217 -29 -58 -32 -73 -32 -155
0 -76 4 -99 27 -147 134 -289 558 -321 729 -55 21 33 39 64 39 69 0 4 -20 8
-45 8 -43 0 -50 -4 -114 -69 -51 -52 -79 -72 -120 -86 -70 -23 -155 -23 -222
1 -68 24 -159 111 -184 177 -31 81 -51 77 355 77 198 0 360 2 360 4 0 3 -7 37
-15 75 -29 141 -103 238 -223 294 -59 28 -79 32 -167 34 -63 2 -115 -2 -140
-10z m236 -94 c63 -20 141 -93 176 -163 l22 -45 -301 -3 c-165 -1 -303 0 -306
2 -8 9 39 90 71 124 70 74 129 101 223 102 34 0 86 -8 115 -17z"/>
<path d="M3211 3209 c-41 -12 -120 -65 -128 -85 -11 -30 -23 -12 -23 36 l0 50
-50 0 -50 0 0 -370 0 -370 50 0 49 0 3 259 3 259 30 44 c105 149 355 126 437
-40 22 -44 23 -60 26 -284 l4 -238 50 0 49 0 -3 258 c-3 256 -3 257 -30 307
-32 62 -104 130 -166 158 -54 24 -195 33 -251 16z"/>
<path d="M4605 3202 c-114 -40 -207 -120 -256 -219 -20 -41 -24 -63 -24 -148
0 -88 3 -107 27 -158 50 -107 168 -195 293 -218 137 -26 266 7 354 90 24 22
46 41 48 41 1 0 3 -29 3 -65 l0 -65 50 0 50 0 0 375 0 375 -50 0 -50 0 0 -65
c0 -36 -2 -65 -5 -65 -3 0 -19 16 -36 35 -17 19 -61 49 -97 67 -59 29 -77 33
-162 36 -71 2 -108 -2 -145 -16z m248 -92 c149 -56 223 -208 178 -365 -21 -71
-115 -164 -190 -188 -123 -39 -240 -10 -331 82 -84 85 -107 171 -74 281 21 70
108 159 186 189 70 27 161 27 231 1z"/>
<path d="M1829 3183 c-13 -16 -12 -17 4 -4 16 13 21 21 13 21 -2 0 -10 -8 -17
-17z"/>
<path d="M1454 3145 c-15 -23 -15 -27 3 -62 31 -65 96 -79 128 -29 12 18 13
29 4 54 -21 61 -104 84 -135 37z"/>
<path d="M15 3152 c-3 -3 -5 -158 -5 -344 l0 -338 50 0 50 0 0 340 c0 317 -1
340 -17 342 -55 4 -73 4 -78 0z"/>
<path d="M300 2924 c0 -154 4 -251 12 -276 18 -60 86 -130 160 -164 54 -25 75
-29 148 -29 176 1 305 78 340 204 5 20 10 141 10 269 l0 232 -49 0 -50 0 -3
-239 -3 -239 -30 -43 c-104 -148 -335 -141 -417 13 -21 40 -23 57 -26 276 l-4
232 -44 0 -44 0 0 -236z"/>
<path d="M1306 3143 c-6 -14 -5 -15 5 -6 7 7 10 15 7 18 -3 3 -9 -2 -12 -12z"/>
<path d="M1816 3148 c3 -5 10 -6 15 -3 13 9 11 12 -6 12 -8 0 -12 -4 -9 -9z"/>
<path d="M1795 3111 c-3 -5 -2 -12 3 -15 5 -3 9 1 9 9 0 17 -3 19 -12 6z"/>
<path d="M1381 2991 c-7 -5 -9 -11 -5 -14 5 -3 15 1 22 9 14 16 5 18 -17 5z"/>
<path d="M1706 2983 c-6 -14 -5 -15 5 -6 7 7 10 15 7 18 -3 3 -9 -2 -12 -12z"/>
<path d="M1730 2975 c-7 -9 -11 -17 -9 -20 3 -2 10 5 17 15 14 24 10 26 -8 5z"/>
<path d="M1776 2975 c-9 -26 -7 -32 5 -12 6 10 9 21 6 23 -2 3 -7 -2 -11 -11z"/>
<path d="M1365 2950 c10 -11 20 -20 23 -20 3 0 -3 9 -13 20 -10 11 -20 20 -23
20 -3 0 3 -9 13 -20z"/>
<path d="M1666 2895 c-9 -26 -7 -32 5 -12 6 10 9 21 6 23 -2 3 -7 -2 -11 -11z"/>
<path d="M1477 2869 c7 -7 15 -10 18 -7 3 3 -2 9 -12 12 -14 6 -15 5 -6 -5z"/>
<path d="M1696 2847 c3 -10 9 -15 12 -12 3 3 0 11 -7 18 -10 9 -11 8 -5 -6z"/>
<path d="M1405 2839 c-4 -6 -5 -12 -2 -15 2 -3 7 2 10 11 7 17 1 20 -8 4z"/>
<path d="M1542 2584 c-7 -14 -8 -23 -3 -20 5 4 12 0 15 -6 3 -7 3 -2 -1 12 -5
23 -5 24 13 10 18 -14 18 -14 4 5 -8 11 -15 21 -16 23 0 1 -6 -9 -12 -24z"/>
<path d="M1477 2362 c-54 -59 -51 -172 14 -527 40 -221 114 -493 209 -774 162
-472 289 -837 289 -827 1 5 -19 84 -43 175 -138 512 -233 931 -270 1181 -23
153 -39 440 -32 552 8 121 -2 166 -49 207 -41 36 -92 42 -118 13z"/>
<path d="M2001 174 c0 -11 3 -14 6 -6 3 7 2 16 -1 19 -3 4 -6 -2 -5 -13z"/>
</g>
</svg>
