<?xml version="1.0" standalone="no"?>
<!DOCTYPE svg PUBLIC "-//W3C//DTD SVG 20010904//EN"
 "http://www.w3.org/TR/2001/REC-SVG-20010904/DTD/svg10.dtd">
<svg version="1.0" xmlns="http://www.w3.org/2000/svg"
 width="200.000000pt" height="200.000000pt" viewBox="0 0 200.000000 200.000000"
 preserveAspectRatio="xMidYMid meet">

<g transform="translate(0.000000,200.000000) scale(0.100000,-0.100000)"
fill="#000000" stroke="none">
<path d="M478 1702 c64 -81 68 -180 12 -263 l-29 -43 50 -28 c60 -35 100 -92
107 -155 5 -53 14 -63 55 -63 37 0 91 -23 137 -60 32 -26 39 -37 45 -82 3 -29
12 -66 20 -83 13 -29 13 -29 14 -5 1 14 6 32 11 40 7 11 10 6 10 -20 1 -19 7
-48 14 -65 l13 -30 7 32 c9 39 26 53 26 22 0 -34 22 -99 31 -93 5 3 9 14 9 24
0 39 20 29 31 -15 12 -46 29 -61 29 -24 l0 20 30 -21 c65 -46 180 -168 199
-211 23 -50 27 -132 8 -166 -19 -34 -58 -60 -128 -84 -55 -20 -84 -23 -209
-24 -114 0 -156 4 -196 18 -51 17 -100 60 -125 107 -15 30 -15 134 0 174 12
30 66 113 106 161 23 28 25 29 38 11 12 -17 15 -15 31 28 10 26 17 48 15 50
-2 2 -29 -5 -59 -14 -48 -14 -52 -17 -32 -24 22 -7 21 -11 -42 -76 -85 -88
-118 -157 -124 -261 -5 -95 8 -138 57 -182 53 -48 135 -76 253 -87 162 -16
426 13 509 56 100 50 139 233 80 367 -48 111 -152 237 -274 334 -43 35 -67 61
-65 71 5 25 105 91 164 108 l51 15 6 52 c8 66 47 123 107 154 25 13 45 27 45
31 0 4 -13 25 -28 48 -33 49 -45 125 -27 178 6 20 28 58 47 83 l35 46 -77 -6
c-88 -6 -193 -51 -258 -108 l-38 -34 22 -60 c16 -46 20 -75 16 -126 -4 -69
-38 -156 -63 -166 -8 -3 -31 10 -52 28 -21 19 -59 49 -85 66 -47 33 -58 58
-35 81 19 19 25 15 73 -35 47 -51 62 -53 45 -8 -14 36 -9 40 22 15 22 -17 28
-18 37 -6 9 11 9 16 1 21 -7 4 -25 36 -40 70 -29 64 -50 89 -50 59 0 -14 -8
-16 -57 -11 -34 4 -68 14 -85 27 -27 20 -28 20 -28 1 0 -11 5 -23 10 -26 6 -3
10 -10 10 -16 0 -13 -44 -11 -58 3 -18 18 -16 -13 2 -37 10 -13 12 -36 8 -77
-5 -55 -3 -62 33 -113 31 -45 35 -58 25 -70 -20 -24 -46 -18 -76 18 -69 82
-90 192 -54 297 l22 65 -39 34 c-65 58 -170 102 -259 108 l-77 6 41 -51z m590
-220 c6 -18 -15 -14 -22 4 -4 10 -1 14 6 12 6 -2 14 -10 16 -16z"/>
</g>
</svg>
