<?xml version="1.0" standalone="no"?>
<!DOCTYPE svg PUBLIC "-//W3C//DTD SVG 20010904//EN"
 "http://www.w3.org/TR/2001/REC-SVG-20010904/DTD/svg10.dtd">
<svg version="1.0" xmlns="http://www.w3.org/2000/svg"
 width="400.000000pt" height="440.000000pt" viewBox="0 0 400.000000 440.000000"
 preserveAspectRatio="xMidYMid meet">

<g transform="translate(0.000000,440.000000) scale(0.100000,-0.100000)"
fill="#000000" stroke="none">
<path d="M853 3975 c3 -49 25 -450 48 -890 23 -440 45 -803 48 -807 4 -4 51
260 105 587 l99 595 546 -276 c300 -152 535 -265 521 -251 -14 13 -320 266
-680 562 -360 296 -664 545 -674 554 -18 16 -19 14 -13 -74z"/>
<path d="M1665 3643 c11 -11 224 -188 473 -393 367 -301 451 -375 440 -385 -7
-6 -233 -155 -503 -330 -269 -175 -494 -322 -500 -327 -5 -5 17 1 50 13 33 12
417 156 854 319 l793 297 -578 293 c-319 161 -685 347 -814 413 -129 66 -226
111 -215 100z"/>
<path d="M1147 2255 c-81 -488 -146 -890 -144 -892 3 -2 340 215 751 483 411
268 745 488 743 490 -2 2 -255 -90 -563 -205 l-559 -209 -7 26 c-4 15 -19 263
-33 552 -15 289 -30 551 -33 584 -6 51 -24 -46 -155 -829z"/>
<path d="M320 880 l0 -30 75 0 75 0 0 -200 0 -200 35 0 35 0 0 200 0 200 75 0
75 0 0 30 0 30 -185 0 -185 0 0 -30z"/>
<path d="M760 680 l0 -230 30 0 30 0 0 80 0 80 59 0 59 0 51 -80 c48 -75 53
-80 86 -80 19 0 35 2 35 5 0 2 -23 41 -51 85 l-52 81 35 29 c83 69 62 203 -39
246 -21 9 -71 14 -138 14 l-105 0 0 -230z m237 146 c40 -34 39 -98 -1 -132
-25 -22 -36 -25 -100 -22 l-71 3 -3 74 c-2 41 -1 80 2 88 4 9 26 13 75 13 59
0 74 -4 98 -24z"/>
<path d="M1310 899 c-123 -49 -176 -205 -112 -330 104 -206 394 -126 394 109
0 96 -49 178 -127 213 -43 20 -115 24 -155 8z m141 -72 c50 -33 82 -100 75
-160 -24 -215 -289 -202 -289 13 0 131 117 212 214 147z"/>
<path d="M1828 740 c-4 -152 -7 -173 -25 -198 -16 -21 -29 -28 -66 -30 -26 -2
-55 2 -66 7 -16 9 -20 7 -26 -16 -9 -38 16 -53 87 -53 71 0 111 19 135 63 15
26 19 63 21 215 l4 182 -30 0 -29 0 -5 -170z"/>
<path d="M2061 892 c-50 -25 -76 -65 -76 -117 0 -63 29 -90 135 -121 93 -28
132 -58 123 -94 -14 -55 -115 -66 -204 -22 -41 21 -45 21 -56 5 -22 -29 -14
-43 34 -65 114 -50 251 -29 286 45 21 43 21 70 2 107 -18 35 -46 51 -143 79
-109 33 -136 68 -87 116 31 32 99 34 155 5 l40 -21 12 27 c11 23 10 28 -7 40
-49 36 -159 45 -214 16z"/>
<path d="M2360 880 l0 -30 75 0 75 0 0 -200 0 -200 35 0 35 0 0 200 0 200 75
0 75 0 0 30 0 30 -185 0 -185 0 0 -30z"/>
<path d="M2800 680 l0 -230 155 0 155 0 0 30 0 29 -122 3 -123 3 0 70 0 70
103 3 c101 3 102 3 102 27 0 24 -1 24 -102 27 l-103 3 0 65 0 65 118 3 117 3
0 29 0 30 -150 0 -150 0 0 -230z"/>
<path d="M3190 680 l0 -230 35 0 35 0 2 163 3 162 130 -162 c110 -137 134
-162 158 -162 l27 -1 0 230 0 230 -35 0 -35 0 -2 -165 -3 -164 -130 164 c-112
142 -134 165 -157 165 l-28 0 0 -230z"/>
</g>
</svg>
